<?xml version="1.0" encoding="utf-8"?>
<!-- Generator: Adobe Illustrator 22.0.1, SVG Export Plug-In . SVG Version: 6.00 Build 0)  -->
<svg version="1.1" id="Layer_1" xmlns="http://www.w3.org/2000/svg" xmlns:xlink="http://www.w3.org/1999/xlink" x="0px" y="0px"
	 viewBox="0 0 500 414.308" enable-background="new 0 0 500 414.308" xml:space="preserve">
<g>
	<path fill="#161616" d="M379.451,194.152c38.685,0,72.369-26.178,81.912-63.668L492.59,7.806H347.52
		c-46.605,0-84.522,37.915-84.522,84.52v64.147h-25.995V92.326c0-46.605-37.918-84.52-84.522-84.52H7.41l31.227,122.677
		c9.543,37.49,43.228,63.668,81.912,63.668h78.77v26.004h-55.495c-51.459,0-93.175,41.716-93.175,93.175
		c0,51.457,41.714,93.171,93.171,93.171h0.011c51.457,0,93.171-41.714,93.171-93.171v-55.496h25.995v55.496
		c0,51.457,41.714,93.171,93.171,93.171h0.011c51.457,0,93.171-41.714,93.171-93.171v-0.004c0-51.457-41.714-93.171-93.171-93.171
		h-55.499v-26.004H379.451z M300.681,92.326c0-25.825,21.011-46.842,46.839-46.842h96.593l-19.267,75.7
		c-5.288,20.774-23.955,35.288-45.395,35.288h-78.77V92.326z M120.549,156.473c-21.44,0-40.107-14.514-45.395-35.288l-19.267-75.7
		h96.593c25.828,0,46.839,21.016,46.839,46.842v64.147H120.549z M199.319,313.331c0,30.648-24.845,55.493-55.493,55.493
		c-30.648,0-55.494-24.845-55.494-55.495c0-30.648,24.845-55.494,55.494-55.494h55.493V313.331z M356.174,257.834
		c30.648,0,55.493,24.845,55.493,55.493v0.004c0,30.648-24.845,55.493-55.494,55.493c-30.648,0-55.493-24.845-55.493-55.493v-55.496
		H356.174z M262.997,220.156h-25.995v-26.004h25.995V220.156z"/>
</g>
</svg>
