<?xml version="1.0" encoding="utf-8"?>
<!-- Generator: Adobe Illustrator 22.0.1, SVG Export Plug-In . SVG Version: 6.00 Build 0)  -->
<svg version="1.1" id="Layer_1" xmlns="http://www.w3.org/2000/svg" xmlns:xlink="http://www.w3.org/1999/xlink" x="0px" y="0px"
	 viewBox="0 0 1000 508.473" enable-background="new 0 0 1000 508.473" xml:space="preserve">
<g>
	<g>
		<path fill="#00E5B9" d="M7.344,287.057l20.094-46.256c29.955,14.411,59.528,23.128,91.382,23.128
			c29.95,0,47.394-10.621,47.394-31.845c-0.383-20.86-19.339-27.683-56.494-34.888c-58.772-11.75-98.588-29.577-98.588-82.282
			c0-48.533,33.366-81.134,100.482-81.134c40.572,0,74.316,8.334,100.477,20.85l-21.994,44.744
			c-22.367-9.483-49.289-17.061-78.483-17.061c-30.333,0-45.5,12.506-45.5,29.194c0,21.233,24.267,28.439,65.216,36.773
			c52.7,10.622,90.621,27.3,90.621,80.005c0,54.982-34.505,83.421-100.482,83.421C74.454,311.706,44.121,303.745,7.344,287.057z"/>
		<path fill="#00E5B9" d="M306.858,100.513v14.028c17.444-13.272,40.95-18.966,60.666-18.966c62.944,0,100.86,41.337,100.86,107.688
			c0,65.594-37.538,107.688-101.994,107.688c-20.099,0-42.849-4.938-59.532-19.721v71.464h-51.188v-262.18H306.858z
			 M416.057,203.263c0-39.433-21.989-61.422-59.528-61.422c-18.961,0-37.916,6.44-50.428,19.712v84.177
			c12.511,13.272,31.467,19.339,51.566,19.339C393.69,265.068,416.057,241.174,416.057,203.263z"/>
		<path fill="#00E5B9" d="M502.089,39.081c0-17.817,14.406-31.845,32.228-31.845c17.066,0,31.472,14.028,31.472,31.845
			c0,17.827-14.406,32.228-31.472,32.228C516.495,71.309,502.089,56.908,502.089,39.081z M559.722,100.513v205.882h-52.327V100.513
			H559.722z"/>
		<path fill="#00E5B9" d="M661.696,100.513v29.194c13.65-20.094,34.883-32.611,62.939-33.749c4.55,0,9.861,0,14.028,1.522v57.25
			c-9.1-2.65-17.439-3.789-24.644-3.789c-37.916,0-52.322,28.439-52.322,55.738v99.716h-51.944V100.513H661.696z"/>
		<path fill="#00E5B9" d="M766.699,39.081c0-17.817,14.411-31.845,32.228-31.845c17.061,0,31.472,14.028,31.472,31.845
			c0,17.827-14.411,32.228-31.472,32.228C781.11,71.309,766.699,56.908,766.699,39.081z M824.332,100.513v205.882H772.01V100.513
			H824.332z"/>
		<path fill="#00E5B9" d="M882.323,242.696v-99.343h-29.577v-42.839h29.577V33.78h51.188v66.733h59.145v42.839h-59.145v90.626
			c0,22.745,5.684,32.601,27.3,32.601c7.961,0,20.85-1.139,31.467-4.162v41.701c-8.339,3.416-25.4,7.205-47.394,7.205
			C899.762,311.323,882.323,289.707,882.323,242.696z"/>
	</g>
	<g>
		<path fill="#00E5B9" d="M96.532,377.125v21.089H31.193v36.989h55.83v21.089h-55.83v42.696H7.344V377.125H96.532z"/>
		<path fill="#00E5B9" d="M103.28,451.973c0-29.728,20.048-48.921,51.682-48.921c31.629,0,51.682,19.193,51.682,48.921
			c0,29.904-20.053,49.087-51.682,49.087C123.329,501.06,103.28,481.877,103.28,451.973z M182.618,451.973
			c0-16.594-11.062-27.656-27.656-27.656s-27.656,11.062-27.656,27.656c0,16.77,11.062,27.832,27.656,27.832
			S182.618,468.743,182.618,451.973z"/>
		<path fill="#00E5B9" d="M222.559,459.234v-54.101h23.679v51.335c0,17.454,6.396,23.503,19.535,23.503
			c8.986,0,16.076-2.766,21.778-7.603v-67.235h23.679v93.855h-22.467v-6.919c-9.162,6.059-20.4,9.167-30.422,9.167
			C232.932,501.236,222.559,490.174,222.559,459.234z"/>
		<path fill="#00E5B9" d="M355.489,405.133v6.909c8.815-5.179,21.783-8.991,32.669-8.991c24.544,0,33.187,10.545,33.187,39.764
			v56.172h-23.508v-52.547c0-16.594-5.531-22.125-18.323-22.125c-9.504,0-17.459,3.284-23.161,7.437v67.235h-23.679v-93.855H355.489
			z"/>
		<path fill="#00E5B9" d="M437.256,451.973c0-30.246,17.454-49.087,45.975-49.087c8.991,0,19.877,2.59,27.656,8.639v-34.399h23.508
			v121.863h-23.508v-6.919c-7.432,6.743-17.977,8.991-26.962,8.991C454.538,501.06,437.256,481.877,437.256,451.973z
			 M511.405,471.332v-38.377c-5.702-6.049-14.517-8.981-23.161-8.981c-17.112,0-26.962,10.027-26.962,27.998
			c0,17.288,10.198,28.174,26.615,28.174C497.058,480.147,505.531,477.382,511.405,471.332z"/>
		<path fill="#00E5B9" d="M551.174,451.973c0-29.904,17.63-48.745,45.975-48.745c9.856,0,19.535,2.248,27.656,8.297v-6.391h23.508
			v93.855h-23.508v-6.919c-6.567,5.883-16.594,8.825-27.138,8.825C568.456,500.894,551.174,481.701,551.174,451.973z
			 M625.323,471.332v-38.377c-6.22-6.391-15.211-8.815-23.161-8.815c-16.765,0-26.962,10.202-26.962,27.832
			c0,17.288,9.851,27.998,27.133,27.998C610.112,479.971,619.102,477.724,625.323,471.332z"/>
		<path fill="#00E5B9" d="M674.078,469.945v-45.286h-13.486v-19.525h13.486v-28.008h23.332v28.008h26.967v19.525h-26.967v41.318
			c0,10.369,2.595,14.864,12.445,14.864c3.63,0,9.509-0.518,14.346-1.906v19.017c-3.801,1.554-11.58,3.284-21.602,3.284
			C682.028,501.236,674.078,491.386,674.078,469.945z"/>
		<path fill="#00E5B9" d="M739.07,377.125c0-8.121,6.572-14.512,14.693-14.512c7.779,0,14.351,6.391,14.351,14.512
			c0,8.131-6.572,14.698-14.351,14.698C745.642,391.823,739.07,385.256,739.07,377.125z M765.348,405.133v93.855h-23.855v-93.855
			H765.348z"/>
		<path fill="#00E5B9" d="M782.978,451.973c0-29.728,20.048-48.921,51.682-48.921c31.629,0,51.682,19.193,51.682,48.921
			c0,29.904-20.053,49.087-51.682,49.087C803.026,501.06,782.978,481.877,782.978,451.973z M862.316,451.973
			c0-16.594-11.063-27.656-27.656-27.656c-16.594,0-27.656,11.062-27.656,27.656c0,16.77,11.062,27.832,27.656,27.832
			C851.253,479.805,862.316,468.743,862.316,451.973z"/>
		<path fill="#00E5B9" d="M926.8,405.133v6.909c8.815-5.179,21.783-8.991,32.669-8.991c24.544,0,33.187,10.545,33.187,39.764v56.172
			h-23.508v-52.547c0-16.594-5.531-22.125-18.323-22.125c-9.504,0-17.459,3.284-23.161,7.437v67.235h-23.679v-93.855H926.8z"/>
	</g>
</g>
</svg>
